<svg width="24" height="24" viewBox="0 0 24 24" fill="none" xmlns="http://www.w3.org/2000/svg">
<g id="Iconly/Light-Outline/Wallet">
<g id="Wallet">
<path id="Fill 1" fill-rule="evenodd" clip-rule="evenodd" d="M21.8887 15.8955H17.8407C15.9437 15.8955 14.3997 14.3526 14.3987 12.4565C14.3987 10.5585 15.9427 9.01455 17.8407 9.01355H21.8887C22.3027 9.01355 22.6387 9.34955 22.6387 9.76355C22.6387 10.1775 22.3027 10.5135 21.8887 10.5135H17.8407C16.7697 10.5145 15.8987 11.3855 15.8987 12.4555C15.8987 13.5245 16.7707 14.3955 17.8407 14.3955H21.8887C22.3027 14.3955 22.6387 14.7315 22.6387 15.1455C22.6387 15.5595 22.3027 15.8955 21.8887 15.8955Z" fill="white"/>
<path id="Fill 3" fill-rule="evenodd" clip-rule="evenodd" d="M18.2983 13.1436H17.9863C17.5723 13.1436 17.2363 12.8076 17.2363 12.3936C17.2363 11.9796 17.5723 11.6436 17.9863 11.6436H18.2983C18.7123 11.6436 19.0483 11.9796 19.0483 12.3936C19.0483 12.8076 18.7123 13.1436 18.2983 13.1436Z" fill="white"/>
<g id="Group 7">
<mask id="mask0_29221_6666" style="mask-type:alpha" maskUnits="userSpaceOnUse" x="2" y="3" width="21" height="20">
<path id="Clip 6" fill-rule="evenodd" clip-rule="evenodd" d="M2 3H22.6386V22.1729H2V3Z" fill="white"/>
</mask>
<g mask="url(#mask0_29221_6666)">
<path id="Fill 5" fill-rule="evenodd" clip-rule="evenodd" d="M7.9976 4.5C5.5176 4.5 3.4996 6.518 3.4996 8.998V16.175C3.4996 18.655 5.5176 20.673 7.9976 20.673H16.6416C19.1216 20.673 21.1386 18.655 21.1386 16.175V8.998C21.1386 6.518 19.1216 4.5 16.6416 4.5H7.9976ZM16.6416 22.173H7.9976C4.6906 22.173 1.9996 19.482 1.9996 16.175V8.998C1.9996 5.69 4.6906 3 7.9976 3H16.6416C19.9486 3 22.6386 5.69 22.6386 8.998V16.175C22.6386 19.482 19.9486 22.173 16.6416 22.173Z" fill="white"/>
</g>
</g>
<path id="Fill 8" fill-rule="evenodd" clip-rule="evenodd" d="M12.6846 9.03809H7.28561C6.87161 9.03809 6.53561 8.70209 6.53561 8.28809C6.53561 7.87409 6.87161 7.53809 7.28561 7.53809H12.6846C13.0986 7.53809 13.4346 7.87409 13.4346 8.28809C13.4346 8.70209 13.0986 9.03809 12.6846 9.03809Z" fill="white"/>
</g>
</g>
</svg>
